# xmcd CD database file
#
# Track frame offsets:
#	150
#	20952
#	39776
#	59700
#	75979
#	95647
#	123139
#	143088
#	166336
#	181852
#	203051
#
# Disc length: 3001 seconds
#
# Revision: 0
# Processed by: cddbd v1.5.2PL0 Copyright (c) Steve Scherf et al.
# Submitted via: CDex 1.51
#
DISCID=8b0bb70b
DTITLE=Waylon Jennings - Never Say Die-The Final Concert CD2
DYEAR=2007
DGENRE=Country
TTITLE0=I'm A Ramblin' Man (w Montgomery Gentry)
TTITLE1=Help Me Make It Through The Night
TTITLE2=Havin' A Good Time
TTITLE3=Shakin' The Blues
TTITLE4=Nothing Catches Jesus By Surprise
TTITLE5=Never Been To Spain
TTITLE6=Drift Away
TTITLE7=I've Always Been Crazy (w Travis Tritt)
TTITLE8=Goin' Down Rockin'
TTITLE9=The Weight
TTITLE10=Can't You See
EXTD=YEAR: 2007
EXTT0=
EXTT1=
EXTT2=
EXTT3=
EXTT4=
EXTT5=
EXTT6=
EXTT7=
EXTT8=
EXTT9=
EXTT10=
PLAYORDER=
